<?xml version="1.0" standalone="yes"?>

<svg version="1.1" viewBox="0.0 0.0 960.0 720.0" fill="none" stroke="none" stroke-linecap="square" stroke-miterlimit="10" xmlns="http://www.w3.org/2000/svg" xmlns:xlink="http://www.w3.org/1999/xlink"><clipPath id="p.0"><path d="m0 0l960.0 0l0 720.0l-960.0 0l0 -720.0z" clip-rule="nonzero"></path></clipPath><g clip-path="url(#p.0)"><path fill="#000000" fill-opacity="0.0" d="m0 0l960.0 0l0 720.0l-960.0 0z" fill-rule="nonzero"></path><path fill="#cccccc" d="m139.12335 281.16797l56.503952 0l0 197.07086l-56.503952 0z" fill-rule="nonzero"></path><path fill="#cccccc" d="m264.17322 281.16797l56.503937 0l0 197.07086l-56.503937 0z" fill-rule="nonzero"></path><path fill="#a61c00" d="m389.22308 224.66405l56.503937 0l0 253.57478l-56.503937 0z" fill-rule="nonzero"></path><path fill="#cccccc" d="m139.12335 281.16797l0 -56.50392l250.96063 0l0 56.50392z" fill-rule="nonzero"></path><path fill="#a61c00" d="m514.27295 224.66405l56.503967 0l0 253.57478l-56.503967 0z" fill-rule="nonzero"></path><path fill="#cccccc" d="m639.3228 281.16797l56.503967 0l0 197.07086l-56.503967 0z" fill-rule="nonzero"></path><path fill="#cccccc" d="m569.916 281.16797l0 -56.50392l250.96063 0l0 56.50392z" fill-rule="nonzero"></path><path fill="#cccccc" d="m764.3727 281.16797l56.503967 0l0 197.07086l-56.503967 0z" fill-rule="nonzero"></path></g></svg>

